G04 #@! TF.FileFunction,Legend,Top*
%FSLAX46Y46*%
G04 Gerber Fmt 4.6, Leading zero omitted, Abs format (unit mm)*
G04 Created by KiCad (PCBNEW 4.0.7-e2-6376~58~ubuntu16.04.1) date Sat May 19 18:02:08 2018*
%MOMM*%
%LPD*%
G01*
G04 APERTURE LIST*
%ADD10C,0.100000*%
%ADD11C,0.200000*%
%ADD12C,0.381000*%
%ADD13C,0.150000*%
%ADD14C,0.120000*%
%ADD15C,0.304800*%
G04 APERTURE END LIST*
D10*
D11*
X19238096Y5950000D02*
X19142858Y5997619D01*
X19000001Y5997619D01*
X18857143Y5950000D01*
X18761905Y5854762D01*
X18714286Y5759524D01*
X18666667Y5569048D01*
X18666667Y5426190D01*
X18714286Y5235714D01*
X18761905Y5140476D01*
X18857143Y5045238D01*
X19000001Y4997619D01*
X19095239Y4997619D01*
X19238096Y5045238D01*
X19285715Y5092857D01*
X19285715Y5426190D01*
X19095239Y5426190D01*
X19714286Y4997619D02*
X19714286Y5997619D01*
X20285715Y4997619D01*
X20285715Y5997619D01*
X20761905Y4997619D02*
X20761905Y5997619D01*
X21000000Y5997619D01*
X21142858Y5950000D01*
X21238096Y5854762D01*
X21285715Y5759524D01*
X21333334Y5569048D01*
X21333334Y5426190D01*
X21285715Y5235714D01*
X21238096Y5140476D01*
X21142858Y5045238D01*
X21000000Y4997619D01*
X20761905Y4997619D01*
X19809524Y4297619D02*
X19333333Y4297619D01*
X19285714Y3821429D01*
X19333333Y3869048D01*
X19428571Y3916667D01*
X19666667Y3916667D01*
X19761905Y3869048D01*
X19809524Y3821429D01*
X19857143Y3726190D01*
X19857143Y3488095D01*
X19809524Y3392857D01*
X19761905Y3345238D01*
X19666667Y3297619D01*
X19428571Y3297619D01*
X19333333Y3345238D01*
X19285714Y3392857D01*
X20142857Y4297619D02*
X20476190Y3297619D01*
X20809524Y4297619D01*
D12*
X-7300000Y6000000D02*
X-6800000Y12000000D01*
X-5800000Y12000000D02*
X-6300000Y6000000D01*
X-5300000Y6000000D02*
X-4800000Y12000000D01*
X-1800000Y13000000D02*
X-299360Y13000500D01*
X-1800000Y5000000D02*
X-299360Y4999500D01*
X-1800000Y13000000D02*
X-1800000Y5000000D01*
X-299360Y7001020D02*
X3701140Y7001020D01*
X3701140Y7001020D02*
X3701140Y6000260D01*
X3701140Y6000260D02*
X-299360Y6000260D01*
X-299360Y9500380D02*
X3701140Y9500380D01*
X3701140Y9500380D02*
X3701140Y8499620D01*
X3701140Y8499620D02*
X-299360Y8499620D01*
X-299360Y11999740D02*
X3701140Y11999740D01*
X3701140Y11999740D02*
X3701140Y10998980D01*
X3701140Y10998980D02*
X-299360Y10998980D01*
X-9800000Y12000000D02*
X-1800000Y12000000D01*
X-299360Y13000500D02*
X-299360Y4999500D01*
X-1800000Y6000000D02*
X-9800000Y6000000D01*
X-9800000Y6000000D02*
X-9800000Y12000000D01*
X-8300000Y6000000D02*
X-7800000Y12000000D01*
X-9300000Y6000000D02*
X-8800000Y12000000D01*
X39300000Y12000000D02*
X38800000Y6000000D01*
X37800000Y6000000D02*
X38300000Y12000000D01*
X37300000Y12000000D02*
X36800000Y6000000D01*
X33800000Y5000000D02*
X32299360Y4999500D01*
X33800000Y13000000D02*
X32299360Y13000500D01*
X33800000Y5000000D02*
X33800000Y13000000D01*
X32299360Y10998980D02*
X28298860Y10998980D01*
X28298860Y10998980D02*
X28298860Y11999740D01*
X28298860Y11999740D02*
X32299360Y11999740D01*
X32299360Y8499620D02*
X28298860Y8499620D01*
X28298860Y8499620D02*
X28298860Y9500380D01*
X28298860Y9500380D02*
X32299360Y9500380D01*
X32299360Y6000260D02*
X28298860Y6000260D01*
X28298860Y6000260D02*
X28298860Y7001020D01*
X28298860Y7001020D02*
X32299360Y7001020D01*
X41800000Y6000000D02*
X33800000Y6000000D01*
X32299360Y4999500D02*
X32299360Y13000500D01*
X33800000Y12000000D02*
X41800000Y12000000D01*
X41800000Y12000000D02*
X41800000Y6000000D01*
X40300000Y12000000D02*
X39800000Y6000000D01*
X41300000Y12000000D02*
X40800000Y6000000D01*
D13*
X7350000Y8400000D02*
X6650000Y8400000D01*
X6650000Y9600000D02*
X7350000Y9600000D01*
X25550000Y8400000D02*
X24850000Y8400000D01*
X24850000Y9600000D02*
X25550000Y9600000D01*
X26470000Y13130000D02*
X26470000Y10590000D01*
X26750000Y15950000D02*
X26750000Y14400000D01*
X26470000Y13130000D02*
X23930000Y13130000D01*
X23650000Y14400000D02*
X23650000Y15950000D01*
X23650000Y15950000D02*
X26750000Y15950000D01*
X23930000Y13130000D02*
X23930000Y10590000D01*
X23930000Y10590000D02*
X26470000Y10590000D01*
D14*
X17050000Y14600000D02*
X17750000Y14600000D01*
X17750000Y13400000D02*
X17050000Y13400000D01*
X13950000Y11600000D02*
X13250000Y11600000D01*
X13250000Y12800000D02*
X13950000Y12800000D01*
X15720000Y10500000D02*
X15720000Y11500000D01*
X17080000Y11500000D02*
X17080000Y10500000D01*
X19100000Y12880000D02*
X20100000Y12880000D01*
X20100000Y11520000D02*
X19100000Y11520000D01*
X15700000Y8560000D02*
X13800000Y8560000D01*
X14300000Y6240000D02*
X15700000Y6240000D01*
X22000000Y12850000D02*
X22000000Y13550000D01*
X23200000Y13550000D02*
X23200000Y12850000D01*
D15*
X-2610571Y7875143D02*
X-4134571Y7875143D01*
X-4134571Y8455715D01*
X-4062000Y8600857D01*
X-3989429Y8673429D01*
X-3844286Y8746000D01*
X-3626571Y8746000D01*
X-3481429Y8673429D01*
X-3408857Y8600857D01*
X-3336286Y8455715D01*
X-3336286Y7875143D01*
X-4134571Y9254000D02*
X-4134571Y10197429D01*
X-3554000Y9689429D01*
X-3554000Y9907143D01*
X-3481429Y10052286D01*
X-3408857Y10124857D01*
X-3263714Y10197429D01*
X-2900857Y10197429D01*
X-2755714Y10124857D01*
X-2683143Y10052286D01*
X-2610571Y9907143D01*
X-2610571Y9471715D01*
X-2683143Y9326572D01*
X-2755714Y9254000D01*
X6201715Y3510571D02*
X6201715Y5034571D01*
X6927429Y3510571D02*
X6927429Y5034571D01*
X7798286Y3510571D01*
X7798286Y5034571D01*
X35789429Y7875143D02*
X34265429Y7875143D01*
X34265429Y8455715D01*
X34338000Y8600857D01*
X34410571Y8673429D01*
X34555714Y8746000D01*
X34773429Y8746000D01*
X34918571Y8673429D01*
X34991143Y8600857D01*
X35063714Y8455715D01*
X35063714Y7875143D01*
X35789429Y10197429D02*
X35789429Y9326572D01*
X35789429Y9762000D02*
X34265429Y9762000D01*
X34483143Y9616857D01*
X34628286Y9471715D01*
X34700857Y9326572D01*
X22476001Y5034571D02*
X22766287Y5034571D01*
X22911429Y4962000D01*
X23056572Y4816857D01*
X23129144Y4526571D01*
X23129144Y4018571D01*
X23056572Y3728286D01*
X22911429Y3583143D01*
X22766287Y3510571D01*
X22476001Y3510571D01*
X22330858Y3583143D01*
X22185715Y3728286D01*
X22113144Y4018571D01*
X22113144Y4526571D01*
X22185715Y4816857D01*
X22330858Y4962000D01*
X22476001Y5034571D01*
X23782286Y5034571D02*
X23782286Y3800857D01*
X23854858Y3655714D01*
X23927429Y3583143D01*
X24072572Y3510571D01*
X24362858Y3510571D01*
X24508000Y3583143D01*
X24580572Y3655714D01*
X24653143Y3800857D01*
X24653143Y5034571D01*
X25161143Y5034571D02*
X26032000Y5034571D01*
X25596571Y3510571D02*
X25596571Y5034571D01*
D13*
X6833334Y6042857D02*
X6785715Y5995238D01*
X6642858Y5947619D01*
X6547620Y5947619D01*
X6404762Y5995238D01*
X6309524Y6090476D01*
X6261905Y6185714D01*
X6214286Y6376190D01*
X6214286Y6519048D01*
X6261905Y6709524D01*
X6309524Y6804762D01*
X6404762Y6900000D01*
X6547620Y6947619D01*
X6642858Y6947619D01*
X6785715Y6900000D01*
X6833334Y6852381D01*
X7785715Y5947619D02*
X7214286Y5947619D01*
X7500000Y5947619D02*
X7500000Y6947619D01*
X7404762Y6804762D01*
X7309524Y6709524D01*
X7214286Y6661905D01*
X25033334Y6042857D02*
X24985715Y5995238D01*
X24842858Y5947619D01*
X24747620Y5947619D01*
X24604762Y5995238D01*
X24509524Y6090476D01*
X24461905Y6185714D01*
X24414286Y6376190D01*
X24414286Y6519048D01*
X24461905Y6709524D01*
X24509524Y6804762D01*
X24604762Y6900000D01*
X24747620Y6947619D01*
X24842858Y6947619D01*
X24985715Y6900000D01*
X25033334Y6852381D01*
X25366667Y6947619D02*
X25985715Y6947619D01*
X25652381Y6566667D01*
X25795239Y6566667D01*
X25890477Y6519048D01*
X25938096Y6471429D01*
X25985715Y6376190D01*
X25985715Y6138095D01*
X25938096Y6042857D01*
X25890477Y5995238D01*
X25795239Y5947619D01*
X25509524Y5947619D01*
X25414286Y5995238D01*
X25366667Y6042857D01*
X27661905Y13947619D02*
X27661905Y14947619D01*
X28042858Y14947619D01*
X28138096Y14900000D01*
X28185715Y14852381D01*
X28233334Y14757143D01*
X28233334Y14614286D01*
X28185715Y14519048D01*
X28138096Y14471429D01*
X28042858Y14423810D01*
X27661905Y14423810D01*
X29090477Y14614286D02*
X29090477Y13947619D01*
X28852381Y14995238D02*
X28614286Y14280952D01*
X29233334Y14280952D01*
X17233334Y15842857D02*
X17185715Y15795238D01*
X17042858Y15747619D01*
X16947620Y15747619D01*
X16804762Y15795238D01*
X16709524Y15890476D01*
X16661905Y15985714D01*
X16614286Y16176190D01*
X16614286Y16319048D01*
X16661905Y16509524D01*
X16709524Y16604762D01*
X16804762Y16700000D01*
X16947620Y16747619D01*
X17042858Y16747619D01*
X17185715Y16700000D01*
X17233334Y16652381D01*
X17614286Y16652381D02*
X17661905Y16700000D01*
X17757143Y16747619D01*
X17995239Y16747619D01*
X18090477Y16700000D01*
X18138096Y16652381D01*
X18185715Y16557143D01*
X18185715Y16461905D01*
X18138096Y16319048D01*
X17566667Y15747619D01*
X18185715Y15747619D01*
X9433334Y11842857D02*
X9385715Y11795238D01*
X9242858Y11747619D01*
X9147620Y11747619D01*
X9004762Y11795238D01*
X8909524Y11890476D01*
X8861905Y11985714D01*
X8814286Y12176190D01*
X8814286Y12319048D01*
X8861905Y12509524D01*
X8909524Y12604762D01*
X9004762Y12700000D01*
X9147620Y12747619D01*
X9242858Y12747619D01*
X9385715Y12700000D01*
X9433334Y12652381D01*
X10290477Y12414286D02*
X10290477Y11747619D01*
X10052381Y12795238D02*
X9814286Y12080952D01*
X10433334Y12080952D01*
X18452381Y10433334D02*
X18452381Y9957143D01*
X17452381Y9957143D01*
X18452381Y11290477D02*
X18452381Y10719048D01*
X18452381Y11004762D02*
X17452381Y11004762D01*
X17595238Y10909524D01*
X17690476Y10814286D01*
X17738095Y10719048D01*
X19833334Y10147619D02*
X19500000Y10623810D01*
X19261905Y10147619D02*
X19261905Y11147619D01*
X19642858Y11147619D01*
X19738096Y11100000D01*
X19785715Y11052381D01*
X19833334Y10957143D01*
X19833334Y10814286D01*
X19785715Y10719048D01*
X19738096Y10671429D01*
X19642858Y10623810D01*
X19261905Y10623810D01*
X20785715Y10147619D02*
X20214286Y10147619D01*
X20500000Y10147619D02*
X20500000Y11147619D01*
X20404762Y11004762D01*
X20309524Y10909524D01*
X20214286Y10861905D01*
X12638095Y4947619D02*
X12638095Y4138095D01*
X12685714Y4042857D01*
X12733333Y3995238D01*
X12828571Y3947619D01*
X13019048Y3947619D01*
X13114286Y3995238D01*
X13161905Y4042857D01*
X13209524Y4138095D01*
X13209524Y4947619D01*
X14209524Y3947619D02*
X13638095Y3947619D01*
X13923809Y3947619D02*
X13923809Y4947619D01*
X13828571Y4804762D01*
X13733333Y4709524D01*
X13638095Y4661905D01*
X20957143Y15233334D02*
X21004762Y15185715D01*
X21052381Y15042858D01*
X21052381Y14947620D01*
X21004762Y14804762D01*
X20909524Y14709524D01*
X20814286Y14661905D01*
X20623810Y14614286D01*
X20480952Y14614286D01*
X20290476Y14661905D01*
X20195238Y14709524D01*
X20100000Y14804762D01*
X20052381Y14947620D01*
X20052381Y15042858D01*
X20100000Y15185715D01*
X20147619Y15233334D01*
X20052381Y16138096D02*
X20052381Y15661905D01*
X20528571Y15614286D01*
X20480952Y15661905D01*
X20433333Y15757143D01*
X20433333Y15995239D01*
X20480952Y16090477D01*
X20528571Y16138096D01*
X20623810Y16185715D01*
X20861905Y16185715D01*
X20957143Y16138096D01*
X21004762Y16090477D01*
X21052381Y15995239D01*
X21052381Y15757143D01*
X21004762Y15661905D01*
X20957143Y15614286D01*
M02*
