G04 #@! TF.FileFunction,Copper,L2,Bot,Signal*
%FSLAX46Y46*%
G04 Gerber Fmt 4.6, Leading zero omitted, Abs format (unit mm)*
G04 Created by KiCad (PCBNEW 4.0.7-e2-6376~58~ubuntu16.04.1) date Sat May 19 18:02:08 2018*
%MOMM*%
%LPD*%
G01*
G04 APERTURE LIST*
%ADD10C,0.100000*%
%ADD11R,4.064000X1.524000*%
%ADD12R,2.032000X2.032000*%
%ADD13O,2.032000X2.032000*%
%ADD14C,0.700000*%
%ADD15C,0.200000*%
G04 APERTURE END LIST*
D10*
D11*
X2200000Y11770000D03*
X2200000Y6230000D03*
X29800000Y6230000D03*
X29800000Y11770000D03*
D12*
X25200000Y14400000D03*
D13*
X25200000Y11860000D03*
D14*
X27200000Y15400000D03*
X27400000Y14400000D03*
X18000000Y9600000D03*
X19000000Y9600000D03*
X20200000Y9600000D03*
X21200000Y9800000D03*
X22000000Y10400000D03*
X23000000Y10400000D03*
X23400000Y15600000D03*
X22400000Y15600000D03*
X21400000Y15600000D03*
X21400000Y14600000D03*
X20800000Y13600000D03*
X19800000Y13600000D03*
X19800000Y14800000D03*
X19000000Y15400000D03*
X17800000Y15400000D03*
X16600000Y15400000D03*
X15400000Y15400000D03*
X14800000Y14600000D03*
X14800000Y13600000D03*
X13800000Y13600000D03*
X12800000Y13600000D03*
X11600000Y13600000D03*
X11000000Y12600000D03*
X11000000Y11600000D03*
X11800000Y10800000D03*
X12800000Y10800000D03*
X13800000Y10800000D03*
X14800000Y10400000D03*
X14800000Y9400000D03*
X13800000Y9400000D03*
X12800000Y9400000D03*
X12000000Y8800000D03*
X11200000Y8200000D03*
X10400000Y9000000D03*
X9800000Y9800000D03*
X8800000Y10400000D03*
X7800000Y10400000D03*
X6800000Y10400000D03*
X5800000Y10400000D03*
X5400000Y11400000D03*
X13000000Y5599994D03*
X6800000Y7600000D03*
X8000000Y7400000D03*
X8600000Y6600000D03*
X9000000Y5800000D03*
X9800000Y5200000D03*
X11000000Y5000000D03*
X12000000Y5000000D03*
X14000000Y5600000D03*
X15000000Y5600000D03*
X16000000Y5600000D03*
X17000000Y5600000D03*
X18000000Y5800000D03*
X18400000Y6600000D03*
X19400000Y6600000D03*
X20400000Y6600000D03*
X21400000Y6600000D03*
X22400000Y6600000D03*
X23200000Y7200000D03*
X24400000Y7600000D03*
X25400000Y7600000D03*
X21600000Y1000000D03*
X10600006Y1000000D03*
X20600000Y1000000D03*
X19600000Y1000000D03*
X18600000Y1000000D03*
X17600000Y1000000D03*
X16600000Y1000000D03*
X15600000Y1000000D03*
X14600000Y1000000D03*
X13600000Y1000000D03*
X12600000Y1000000D03*
X11600000Y1000000D03*
X5500000Y12500000D03*
X4500000Y13500000D03*
X3000000Y13500000D03*
X5500000Y7500000D03*
X5500000Y6500000D03*
X5500000Y5500000D03*
X4500000Y4500000D03*
X3000000Y4500000D03*
X26500000Y7500000D03*
X26500000Y6500000D03*
X26500000Y5500000D03*
X27500000Y4500000D03*
X29000000Y4500000D03*
X27500000Y13500000D03*
X29000000Y13500000D03*
X1500000Y13500000D03*
X2500000Y14500000D03*
X3500000Y15500000D03*
X4500000Y16500000D03*
X5500000Y17000000D03*
X6500000Y17000000D03*
X7500000Y17000000D03*
X8500000Y17000000D03*
X9500000Y17000000D03*
X10500000Y17000000D03*
X11500000Y17000000D03*
X12500000Y17000000D03*
X13500000Y17000000D03*
X14500000Y17000000D03*
X15500000Y17000000D03*
X16500000Y17000000D03*
X17500000Y17000000D03*
X18500000Y17000000D03*
X19500000Y17000000D03*
X20500000Y17000000D03*
X21500000Y17000000D03*
X22500000Y17000000D03*
X23500000Y17000000D03*
X24500000Y17000000D03*
X25500000Y17000000D03*
X26500000Y17000000D03*
X27500000Y16500000D03*
X28500000Y15500000D03*
X29500000Y14500000D03*
X30500000Y13500000D03*
X30500000Y4500000D03*
X29500000Y3500000D03*
X28500000Y2500000D03*
X27500000Y1500000D03*
X26500000Y1000000D03*
X25500000Y1000000D03*
X24500000Y1000000D03*
X23500000Y1000000D03*
X22500000Y1000000D03*
X9500000Y1000000D03*
X8500000Y1000000D03*
X7500000Y1000000D03*
X6500000Y1000000D03*
X5500000Y1000000D03*
X4500000Y1500000D03*
X3500000Y2500000D03*
X2500000Y3500000D03*
X1500000Y4500000D03*
D15*
X27500000Y13500000D02*
X27500000Y14300000D01*
X27500000Y14300000D02*
X27400000Y14400000D01*
X20200000Y9600000D02*
X19000000Y9600000D01*
X22000000Y10400000D02*
X21800000Y10400000D01*
X21800000Y10400000D02*
X21200000Y9800000D01*
X29800000Y11770000D02*
X27568000Y11770000D01*
X27568000Y11770000D02*
X26198000Y10400000D01*
X26198000Y10400000D02*
X23000000Y10400000D01*
X21400000Y15600000D02*
X22400000Y15600000D01*
X20800000Y13600000D02*
X20800000Y14000000D01*
X20800000Y14000000D02*
X21400000Y14600000D01*
X19800000Y14800000D02*
X19800000Y13600000D01*
X17800000Y15400000D02*
X19000000Y15400000D01*
X15400000Y15400000D02*
X16600000Y15400000D01*
X14800000Y13600000D02*
X14800000Y14600000D01*
X12800000Y13600000D02*
X13800000Y13600000D01*
X11000000Y12600000D02*
X11000000Y13000000D01*
X11000000Y13000000D02*
X11600000Y13600000D01*
X11800000Y10800000D02*
X11000000Y11600000D01*
X13800000Y10800000D02*
X12800000Y10800000D01*
X14800000Y9400000D02*
X14800000Y10400000D01*
X12800000Y9400000D02*
X13800000Y9400000D01*
X11200000Y8200000D02*
X11400000Y8200000D01*
X11400000Y8200000D02*
X12000000Y8800000D01*
X9800000Y9800000D02*
X9800000Y9600000D01*
X9800000Y9600000D02*
X10400000Y9000000D01*
X7800000Y10400000D02*
X8800000Y10400000D01*
X5800000Y10400000D02*
X6800000Y10400000D01*
X5500000Y12500000D02*
X5500000Y11500000D01*
X5500000Y11500000D02*
X5400000Y11400000D01*
X13000006Y5600000D02*
X13000000Y5599994D01*
X13200000Y5600000D02*
X13000006Y5600000D01*
X14000000Y5600000D02*
X13200000Y5600000D01*
X6800000Y7600000D02*
X5600000Y7600000D01*
X5600000Y7600000D02*
X5500000Y7500000D01*
X8600000Y6600000D02*
X8600000Y6800000D01*
X8600000Y6800000D02*
X8000000Y7400000D01*
X9800000Y5200000D02*
X9600000Y5200000D01*
X9600000Y5200000D02*
X9000000Y5800000D01*
X12000000Y5000000D02*
X11000000Y5000000D01*
X16000000Y5600000D02*
X15000000Y5600000D01*
X18000000Y5800000D02*
X17200000Y5800000D01*
X17200000Y5800000D02*
X17000000Y5600000D01*
X19400000Y6600000D02*
X18400000Y6600000D01*
X21400000Y6600000D02*
X20400000Y6600000D01*
X23200000Y7200000D02*
X23000000Y7200000D01*
X23000000Y7200000D02*
X22400000Y6600000D01*
X25400000Y7600000D02*
X24400000Y7600000D01*
X20600000Y1000000D02*
X21600000Y1000000D01*
X10600000Y1000000D02*
X10600006Y1000000D01*
X11600000Y1000000D02*
X10600000Y1000000D01*
X18600000Y1000000D02*
X19600000Y1000000D01*
X16600000Y1000000D02*
X17600000Y1000000D01*
X14600000Y1000000D02*
X15600000Y1000000D01*
X12600000Y1000000D02*
X13600000Y1000000D01*
X3000000Y13500000D02*
X4500000Y13500000D01*
X5500000Y5500000D02*
X5500000Y6500000D01*
X3000000Y4500000D02*
X4500000Y4500000D01*
X26500000Y5500000D02*
X26500000Y6500000D01*
X29000000Y4500000D02*
X27500000Y4500000D01*
X29000000Y13500000D02*
X27500000Y13500000D01*
X2500000Y14500000D02*
X1500000Y13500000D01*
X4500000Y16500000D02*
X3500000Y15500000D01*
X6500000Y17000000D02*
X5500000Y17000000D01*
X8500000Y17000000D02*
X7500000Y17000000D01*
X10500000Y17000000D02*
X9500000Y17000000D01*
X12500000Y17000000D02*
X11500000Y17000000D01*
X14500000Y17000000D02*
X13500000Y17000000D01*
X16500000Y17000000D02*
X15500000Y17000000D01*
X18500000Y17000000D02*
X17500000Y17000000D01*
X20500000Y17000000D02*
X19500000Y17000000D01*
X22500000Y17000000D02*
X21500000Y17000000D01*
X24500000Y17000000D02*
X23500000Y17000000D01*
X26500000Y17000000D02*
X25500000Y17000000D01*
X28500000Y15500000D02*
X27500000Y16500000D01*
X30500000Y13500000D02*
X29500000Y14500000D01*
X28500000Y2500000D02*
X29500000Y3500000D01*
X26500000Y1000000D02*
X27000000Y1000000D01*
X27000000Y1000000D02*
X27500000Y1500000D01*
X24500000Y1000000D02*
X25500000Y1000000D01*
X22500000Y1000000D02*
X23500000Y1000000D01*
X7500000Y1000000D02*
X8500000Y1000000D01*
X5500000Y1000000D02*
X6500000Y1000000D01*
X3500000Y2500000D02*
X4500000Y1500000D01*
X1500000Y4500000D02*
X2500000Y3500000D01*
X2300000Y6230000D02*
X2300000Y5268000D01*
X2300000Y5268000D02*
X1532000Y4500000D01*
G36*
X31825000Y12927512D02*
X31825000Y5072488D01*
X27127512Y375000D01*
X4872488Y375000D01*
X175000Y5072488D01*
X175000Y12927512D01*
X1341488Y14094000D01*
X23576000Y14094000D01*
X23576000Y13263062D01*
X23668562Y13039596D01*
X23839595Y12868563D01*
X24063061Y12776000D01*
X24233941Y12776000D01*
X23958393Y12363611D01*
X23858218Y11860000D01*
X23958393Y11356389D01*
X24243665Y10929447D01*
X24670607Y10644175D01*
X25174218Y10544000D01*
X25225782Y10544000D01*
X25729393Y10644175D01*
X26156335Y10929447D01*
X26441607Y11356389D01*
X26541782Y11860000D01*
X26441607Y12363611D01*
X26166059Y12776000D01*
X26336939Y12776000D01*
X26560405Y12868563D01*
X26731438Y13039596D01*
X26824000Y13263062D01*
X26824000Y14094000D01*
X26672000Y14246000D01*
X25354000Y14246000D01*
X25354000Y14226000D01*
X25046000Y14226000D01*
X25046000Y14246000D01*
X23728000Y14246000D01*
X23576000Y14094000D01*
X1341488Y14094000D01*
X2784426Y15536938D01*
X23576000Y15536938D01*
X23576000Y14706000D01*
X23728000Y14554000D01*
X25046000Y14554000D01*
X25046000Y15872000D01*
X25354000Y15872000D01*
X25354000Y14554000D01*
X26672000Y14554000D01*
X26824000Y14706000D01*
X26824000Y15536938D01*
X26731438Y15760404D01*
X26560405Y15931437D01*
X26336939Y16024000D01*
X25506000Y16024000D01*
X25354000Y15872000D01*
X25046000Y15872000D01*
X24894000Y16024000D01*
X24063061Y16024000D01*
X23839595Y15931437D01*
X23668562Y15760404D01*
X23576000Y15536938D01*
X2784426Y15536938D01*
X4872488Y17625000D01*
X27127512Y17625000D01*
X31825000Y12927512D01*
X31825000Y12927512D01*
G37*
X31825000Y12927512D02*
X31825000Y5072488D01*
X27127512Y375000D01*
X4872488Y375000D01*
X175000Y5072488D01*
X175000Y12927512D01*
X1341488Y14094000D01*
X23576000Y14094000D01*
X23576000Y13263062D01*
X23668562Y13039596D01*
X23839595Y12868563D01*
X24063061Y12776000D01*
X24233941Y12776000D01*
X23958393Y12363611D01*
X23858218Y11860000D01*
X23958393Y11356389D01*
X24243665Y10929447D01*
X24670607Y10644175D01*
X25174218Y10544000D01*
X25225782Y10544000D01*
X25729393Y10644175D01*
X26156335Y10929447D01*
X26441607Y11356389D01*
X26541782Y11860000D01*
X26441607Y12363611D01*
X26166059Y12776000D01*
X26336939Y12776000D01*
X26560405Y12868563D01*
X26731438Y13039596D01*
X26824000Y13263062D01*
X26824000Y14094000D01*
X26672000Y14246000D01*
X25354000Y14246000D01*
X25354000Y14226000D01*
X25046000Y14226000D01*
X25046000Y14246000D01*
X23728000Y14246000D01*
X23576000Y14094000D01*
X1341488Y14094000D01*
X2784426Y15536938D01*
X23576000Y15536938D01*
X23576000Y14706000D01*
X23728000Y14554000D01*
X25046000Y14554000D01*
X25046000Y15872000D01*
X25354000Y15872000D01*
X25354000Y14554000D01*
X26672000Y14554000D01*
X26824000Y14706000D01*
X26824000Y15536938D01*
X26731438Y15760404D01*
X26560405Y15931437D01*
X26336939Y16024000D01*
X25506000Y16024000D01*
X25354000Y15872000D01*
X25046000Y15872000D01*
X24894000Y16024000D01*
X24063061Y16024000D01*
X23839595Y15931437D01*
X23668562Y15760404D01*
X23576000Y15536938D01*
X2784426Y15536938D01*
X4872488Y17625000D01*
X27127512Y17625000D01*
X31825000Y12927512D01*
M02*
