G04 #@! TF.FileFunction,Soldermask,Bot*
%FSLAX46Y46*%
G04 Gerber Fmt 4.6, Leading zero omitted, Abs format (unit mm)*
G04 Created by KiCad (PCBNEW 4.0.7-e2-6376~58~ubuntu16.04.1) date Sat May 19 18:02:08 2018*
%MOMM*%
%LPD*%
G01*
G04 APERTURE LIST*
%ADD10C,0.100000*%
%ADD11R,4.464000X1.924000*%
%ADD12R,2.432000X2.432000*%
%ADD13O,2.432000X2.432000*%
%ADD14C,0.200000*%
G04 APERTURE END LIST*
D10*
D11*
X2200000Y11770000D03*
X2200000Y6230000D03*
X29800000Y6230000D03*
X29800000Y11770000D03*
D12*
X25200000Y14400000D03*
D13*
X25200000Y11860000D03*
D14*
G36*
X30900000Y16500000D02*
X28600000Y16500000D01*
X28561094Y16492121D01*
X28528319Y16469727D01*
X28506839Y16436346D01*
X28500038Y16397237D01*
X28508989Y16358564D01*
X28529289Y16329289D01*
X31900000Y12958578D01*
X31900000Y5041422D01*
X28529289Y1670711D01*
X28507350Y1637629D01*
X28500010Y1598619D01*
X28508425Y1559825D01*
X28531270Y1527363D01*
X28564945Y1506346D01*
X28600000Y1500000D01*
X30900000Y1500000D01*
X30900000Y-900000D01*
X1100000Y-900000D01*
X1100000Y1500000D01*
X3400000Y1500000D01*
X3438906Y1507879D01*
X3471681Y1530273D01*
X3493161Y1563654D01*
X3499962Y1602763D01*
X3491011Y1641436D01*
X3470711Y1670711D01*
X100000Y5041422D01*
X100000Y12958578D01*
X3470711Y16329289D01*
X3492650Y16362371D01*
X3499990Y16401381D01*
X3491575Y16440175D01*
X3468730Y16472637D01*
X3435055Y16493654D01*
X3400000Y16500000D01*
X1100000Y16500000D01*
X1100000Y18900000D01*
X30900000Y18900000D01*
X30900000Y16500000D01*
X30900000Y16500000D01*
G37*
X30900000Y16500000D02*
X28600000Y16500000D01*
X28561094Y16492121D01*
X28528319Y16469727D01*
X28506839Y16436346D01*
X28500038Y16397237D01*
X28508989Y16358564D01*
X28529289Y16329289D01*
X31900000Y12958578D01*
X31900000Y5041422D01*
X28529289Y1670711D01*
X28507350Y1637629D01*
X28500010Y1598619D01*
X28508425Y1559825D01*
X28531270Y1527363D01*
X28564945Y1506346D01*
X28600000Y1500000D01*
X30900000Y1500000D01*
X30900000Y-900000D01*
X1100000Y-900000D01*
X1100000Y1500000D01*
X3400000Y1500000D01*
X3438906Y1507879D01*
X3471681Y1530273D01*
X3493161Y1563654D01*
X3499962Y1602763D01*
X3491011Y1641436D01*
X3470711Y1670711D01*
X100000Y5041422D01*
X100000Y12958578D01*
X3470711Y16329289D01*
X3492650Y16362371D01*
X3499990Y16401381D01*
X3491575Y16440175D01*
X3468730Y16472637D01*
X3435055Y16493654D01*
X3400000Y16500000D01*
X1100000Y16500000D01*
X1100000Y18900000D01*
X30900000Y18900000D01*
X30900000Y16500000D01*
M02*
