M48
;DRILL file {KiCad 4.0.7-e2-6376~58~ubuntu16.04.1} date Sat May 19 18:02:11 2018
;FORMAT={-:-/ absolute / metric / decimal}
FMAT,2
METRIC,TZ
T1C0.300
T2C1.016
%
G90
G05
M71
T1
X1.5Y13.5
X1.5Y4.5
X2.5Y14.5
X2.5Y3.5
X3.Y13.5
X3.Y4.5
X3.5Y15.5
X3.5Y2.5
X4.5Y16.5
X4.5Y13.5
X4.5Y4.5
X4.5Y1.5
X5.4Y11.4
X5.5Y17.
X5.5Y12.5
X5.5Y7.5
X5.5Y6.5
X5.5Y5.5
X5.5Y1.
X5.8Y10.4
X6.5Y17.
X6.5Y1.
X6.8Y10.4
X6.8Y7.6
X7.5Y17.
X7.5Y1.
X7.8Y10.4
X8.Y7.4
X8.5Y17.
X8.5Y1.
X8.6Y6.6
X8.8Y10.4
X9.Y5.8
X9.5Y17.
X9.5Y1.
X9.8Y9.8
X9.8Y5.2
X10.4Y9.
X10.5Y17.
X10.6Y1.
X11.Y12.6
X11.Y11.6
X11.Y5.
X11.2Y8.2
X11.5Y17.
X11.6Y13.6
X11.6Y1.
X11.8Y10.8
X12.Y8.8
X12.Y5.
X12.5Y17.
X12.6Y1.
X12.8Y13.6
X12.8Y10.8
X12.8Y9.4
X13.Y5.6
X13.5Y17.
X13.6Y1.
X13.8Y13.6
X13.8Y10.8
X13.8Y9.4
X14.Y5.6
X14.5Y17.
X14.6Y1.
X14.8Y14.6
X14.8Y13.6
X14.8Y10.4
X14.8Y9.4
X15.Y5.6
X15.4Y15.4
X15.5Y17.
X15.6Y1.
X16.Y5.6
X16.5Y17.
X16.6Y15.4
X16.6Y1.
X17.Y5.6
X17.5Y17.
X17.6Y1.
X17.8Y15.4
X18.Y9.6
X18.Y5.8
X18.4Y6.6
X18.5Y17.
X18.6Y1.
X19.Y15.4
X19.Y9.6
X19.4Y6.6
X19.5Y17.
X19.6Y1.
X19.8Y14.8
X19.8Y13.6
X20.2Y9.6
X20.4Y6.6
X20.5Y17.
X20.6Y1.
X20.8Y13.6
X21.2Y9.8
X21.4Y15.6
X21.4Y14.6
X21.4Y6.6
X21.5Y17.
X21.6Y1.
X22.Y10.4
X22.4Y15.6
X22.4Y6.6
X22.5Y17.
X22.5Y1.
X23.Y10.4
X23.2Y7.2
X23.4Y15.6
X23.5Y17.
X23.5Y1.
X24.4Y7.6
X24.5Y17.
X24.5Y1.
X25.4Y7.6
X25.5Y17.
X25.5Y1.
X26.5Y17.
X26.5Y7.5
X26.5Y6.5
X26.5Y5.5
X26.5Y1.
X27.2Y15.4
X27.4Y14.4
X27.5Y16.5
X27.5Y13.5
X27.5Y4.5
X27.5Y1.5
X28.5Y15.5
X28.5Y2.5
X29.Y13.5
X29.Y4.5
X29.5Y14.5
X29.5Y3.5
X30.5Y13.5
X30.5Y4.5
T2
X25.2Y14.4
X25.2Y11.86
T0
M30
