G04 #@! TF.FileFunction,Soldermask,Top*
%FSLAX46Y46*%
G04 Gerber Fmt 4.6, Leading zero omitted, Abs format (unit mm)*
G04 Created by KiCad (PCBNEW 4.0.7-e2-6376~58~ubuntu16.04.1) date Sat May 19 18:02:08 2018*
%MOMM*%
%LPD*%
G01*
G04 APERTURE LIST*
%ADD10C,0.100000*%
%ADD11R,4.464000X1.924000*%
%ADD12R,1.600000X1.150000*%
%ADD13R,2.432000X2.432000*%
%ADD14O,2.432000X2.432000*%
%ADD15R,1.300000X1.600000*%
%ADD16R,1.600000X1.300000*%
%ADD17R,1.900000X0.800000*%
%ADD18R,1.150000X1.600000*%
%ADD19C,0.200000*%
G04 APERTURE END LIST*
D10*
D11*
X2200000Y9000000D03*
X2200000Y11770000D03*
X2200000Y6230000D03*
X29800000Y9000000D03*
X29800000Y6230000D03*
X29800000Y11770000D03*
D12*
X7950000Y9000000D03*
X6050000Y9000000D03*
X26150000Y9000000D03*
X24250000Y9000000D03*
D13*
X25200000Y14400000D03*
D14*
X25200000Y11860000D03*
D12*
X16450000Y14000000D03*
X18350000Y14000000D03*
X14550000Y12200000D03*
X12650000Y12200000D03*
D15*
X16400000Y12100000D03*
X16400000Y9900000D03*
D16*
X20700000Y12200000D03*
X18500000Y12200000D03*
D17*
X13670000Y8050000D03*
X13670000Y7400000D03*
X13670000Y6750000D03*
X16330000Y6750000D03*
X16330000Y7400000D03*
X16330000Y8050000D03*
D18*
X22600000Y12250000D03*
X22600000Y14150000D03*
D19*
G36*
X22900000Y8041422D02*
X22158578Y7300000D01*
X17900000Y7300000D01*
X17900000Y9100000D01*
X21400000Y9100000D01*
X21438906Y9107879D01*
X21470711Y9129289D01*
X22241422Y9900000D01*
X22900000Y9900000D01*
X22900000Y8041422D01*
X22900000Y8041422D01*
G37*
X22900000Y8041422D02*
X22158578Y7300000D01*
X17900000Y7300000D01*
X17900000Y9100000D01*
X21400000Y9100000D01*
X21438906Y9107879D01*
X21470711Y9129289D01*
X22241422Y9900000D01*
X22900000Y9900000D01*
X22900000Y8041422D01*
G36*
X10729289Y7529289D02*
X10762371Y7507350D01*
X10800000Y7500000D01*
X12300000Y7500000D01*
X12300000Y5700000D01*
X10241422Y5700000D01*
X9300000Y6641422D01*
X9300000Y8958578D01*
X10729289Y7529289D01*
X10729289Y7529289D01*
G37*
X10729289Y7529289D02*
X10762371Y7507350D01*
X10800000Y7500000D01*
X12300000Y7500000D01*
X12300000Y5700000D01*
X10241422Y5700000D01*
X9300000Y6641422D01*
X9300000Y8958578D01*
X10729289Y7529289D01*
G36*
X30900000Y-900000D02*
X1100000Y-900000D01*
X1100000Y1500000D01*
X30900000Y1500000D01*
X30900000Y-900000D01*
X30900000Y-900000D01*
G37*
X30900000Y-900000D02*
X1100000Y-900000D01*
X1100000Y1500000D01*
X30900000Y1500000D01*
X30900000Y-900000D01*
G36*
X30900000Y16500000D02*
X1100000Y16500000D01*
X1100000Y18900000D01*
X30900000Y18900000D01*
X30900000Y16500000D01*
X30900000Y16500000D01*
G37*
X30900000Y16500000D02*
X1100000Y16500000D01*
X1100000Y18900000D01*
X30900000Y18900000D01*
X30900000Y16500000D01*
M02*
